<?xml version="1.0" standalone="no"?>
<!DOCTYPE svg PUBLIC "-//W3C//DTD SVG 20010904//EN"
 "http://www.w3.org/TR/2001/REC-SVG-20010904/DTD/svg10.dtd">
<svg version="1.0" xmlns="http://www.w3.org/2000/svg"
 width="2000.000000pt" height="1322.000000pt" viewBox="0 0 2000.000000 1322.000000"
 preserveAspectRatio="xMidYMid meet">

<g transform="translate(0.000000,1322.000000) scale(0.100000,-0.100000)"
fill="#000000" stroke="none">
<path d="M0 6610 l0 -6610 10000 0 10000 0 0 6610 0 6610 -6082 0 c-5309 0
-6079 -2 -6062 -15 16 -12 17 -14 3 -15 -9 0 -22 7 -29 15 -9 11 -30 14 -84
12 -61 -2 -71 -4 -68 -19 2 -12 -4 -18 -17 -18 -14 0 -18 5 -14 20 4 16 0 20
-20 20 -26 0 -45 -29 -32 -50 3 -5 -1 -10 -9 -10 -19 0 -21 21 -4 38 6 6 8 15
4 19 -4 4 -11 1 -16 -7 -7 -12 -12 -12 -22 -2 -14 14 -102 17 -94 3 4 -5 0
-12 -6 -14 -10 -4 -10 -8 1 -15 8 -6 9 -12 3 -16 -12 -7 -26 29 -17 44 4 6
-10 10 -34 10 -47 0 -52 -12 -15 -36 15 -10 23 -23 19 -32 -4 -11 0 -13 15 -9
24 6 83 -20 75 -33 -6 -10 -35 -2 -35 9 0 3 -21 7 -47 9 -53 3 -62 7 -45 24
16 16 15 31 -1 25 -15 -5 -39 18 -29 29 4 4 2 4 -5 0 -6 -3 -14 -2 -18 4 -3 5
-14 10 -23 10 -12 0 -13 -3 -4 -12 20 -20 15 -47 -8 -45 -17 1 -20 6 -15 29 9
37 -9 36 -25 -1 -14 -35 -7 -53 18 -44 12 4 14 3 7 -5 -14 -16 -55 -3 -55 17
0 14 -2 14 -11 1 -9 -12 -10 -10 -6 8 6 26 -1 52 -13 52 -4 0 -7 -18 -6 -40 2
-44 0 -46 -27 -26 -10 8 -27 12 -37 9 -15 -4 -20 0 -20 14 0 31 -11 34 -31 9
-23 -29 -24 -37 -4 -30 9 4 25 -4 39 -19 21 -23 22 -28 9 -39 -12 -10 -17 -9
-24 5 -6 9 -14 17 -20 17 -5 0 -19 9 -31 20 -26 24 -38 25 -38 5 0 -8 -7 -15
-15 -15 -8 0 -15 8 -15 18 0 15 -2 15 -11 2 -8 -11 -12 -12 -16 -2 -2 6 -15
12 -28 12 -21 0 -24 -4 -21 -35 2 -19 0 -35 -4 -35 -15 0 -21 18 -8 23 8 2 1
10 -14 17 -16 7 -28 17 -28 21 0 11 -60 8 -67 -4 -4 -6 4 -8 20 -5 15 3 24 1
21 -3 -3 -5 4 -9 15 -9 15 0 21 -6 21 -21 0 -15 -4 -19 -16 -15 -9 3 -18 6
-20 6 -2 0 -4 7 -4 15 0 18 -31 20 -47 4 -16 -16 -43 -3 -43 21 0 24 -15 27
-24 3 -6 -15 -8 -15 -19 1 -13 17 -52 13 -42 -5 3 -4 12 -6 20 -2 9 3 15 -1
15 -10 0 -18 -21 -27 -60 -27 -16 0 -32 -5 -36 -11 -5 -8 0 -10 17 -6 13 3 31
2 39 -3 12 -8 11 -10 -5 -10 -16 0 -17 -2 -6 -9 17 -11 41 -3 38 11 -1 6 4 13
11 15 14 5 16 -15 3 -35 -11 -19 -61 -23 -68 -6 -3 8 -13 14 -23 14 -10 0 -20
9 -23 21 -3 12 -10 19 -15 15 -5 -3 -25 -6 -45 -8 -22 -1 -37 -7 -37 -15 0 -7
-4 -13 -9 -13 -6 0 -9 9 -8 19 0 11 5 17 9 15 10 -7 10 7 -1 24 -14 22 -41
-46 -30 -75 11 -30 11 -33 -1 -33 -5 0 -10 6 -10 14 0 8 -6 16 -13 19 -9 4 -9
7 1 18 17 18 15 46 -3 53 -18 7 -20 -5 -3 -22 9 -9 9 -12 -2 -12 -34 0 -58 12
-53 26 3 9 -2 14 -13 14 -14 0 -16 -2 -6 -9 8 -4 13 -11 13 -15 -4 -26 1 -34
18 -29 15 4 18 0 14 -20 -3 -17 -10 -24 -19 -20 -8 3 -14 9 -14 14 0 4 -7 6
-15 3 -8 -4 -15 -1 -15 5 0 6 -4 11 -10 11 -5 0 -10 -8 -10 -18 0 -11 -9 -27
-21 -37 -20 -19 -20 -19 -10 9 16 40 14 46 -16 46 -19 0 -24 3 -17 10 7 7 25
8 52 1 34 -7 42 -6 42 5 0 12 -20 18 -58 17 -8 -1 -10 6 -6 19 5 17 3 18 -15
9 -12 -7 -21 -17 -21 -23 0 -6 -11 -8 -25 -6 -20 4 -25 1 -24 -16 0 -11 3 -15
6 -8 4 10 8 10 19 1 21 -17 17 -29 -8 -29 -22 -1 -23 -1 -4 -15 16 -12 17 -18
8 -27 -9 -9 -12 -9 -12 0 0 7 -7 12 -16 12 -10 0 -14 6 -11 14 7 18 -17 28
-32 13 -8 -8 -16 -6 -31 8 -19 18 -20 18 -20 -3 0 -14 -6 -22 -16 -22 -11 0
-14 5 -10 16 3 9 6 20 6 26 0 6 12 8 30 5 17 -4 30 -2 30 3 0 6 -15 10 -32 11
l-33 1 28 11 c33 13 35 25 5 22 -13 -1 -31 -3 -40 -4 -11 0 -18 -9 -18 -21 0
-14 -7 -20 -21 -20 -13 0 -18 -4 -13 -12 5 -8 -5 -9 -34 -5 -23 3 -42 4 -42 2
0 -20 24 -58 42 -65 21 -9 21 -9 -7 -7 -25 2 -32 8 -41 37 -13 38 -34 52 -34
22 0 -33 -11 -52 -30 -52 -11 0 -21 4 -24 8 -7 12 5 53 14 47 4 -3 14 3 21 12
12 15 12 16 -6 9 -11 -5 -27 -10 -37 -13 -16 -5 -28 -39 -20 -61 2 -7 12 -12
23 -12 10 0 19 -4 19 -10 0 -12 -3 -12 -33 -1 -22 9 -24 14 -20 55 4 31 1 46
-7 46 -6 0 -4 7 6 18 17 16 17 17 -2 20 -10 2 -29 8 -42 15 -18 9 -25 8 -32
-2 -4 -8 -25 -15 -46 -16 -52 -3 -54 -3 -54 -15 0 -6 11 -8 25 -4 24 6 32 -6
26 -40 -1 -4 4 -14 10 -22 9 -11 7 -14 -10 -14 -17 0 -21 4 -17 18 4 12 -2 21
-23 30 -31 14 -94 6 -70 -9 23 -14 4 -19 -24 -6 -29 13 -35 27 -12 27 8 0 15
5 15 11 0 6 7 9 15 5 8 -3 14 0 12 6 -1 6 9 15 23 19 17 6 12 7 -15 3 -22 -4
-52 -7 -67 -8 -19 -1 -24 -4 -17 -13 6 -6 7 -22 4 -36 -6 -22 -9 -23 -30 -13
-14 6 -19 14 -13 17 6 4 7 12 3 18 -8 15 -74 -48 -68 -65 2 -6 -3 -14 -12 -18
-9 -3 -14 -10 -11 -15 3 -5 -6 -8 -20 -7 -25 1 -25 1 -5 15 12 7 21 20 21 27
0 7 11 21 25 30 23 15 34 35 18 33 -30 -5 -33 4 -5 16 33 15 43 35 16 35 -8 0
-13 4 -10 9 3 4 -1 17 -9 27 -8 10 -15 14 -15 8 0 -5 5 -15 12 -22 9 -9 9 -12
-2 -12 -13 0 -13 -2 0 -10 13 -9 12 -13 -6 -28 -12 -9 -24 -25 -27 -34 -4 -10
-11 -18 -17 -18 -14 0 -13 13 2 28 9 9 8 12 -5 12 -9 0 -17 4 -17 10 0 5 -6 7
-14 4 -8 -3 -17 0 -21 6 -4 7 2 14 14 17 23 6 29 23 9 23 -19 0 -34 -13 -42
-34 -5 -14 -10 -16 -17 -9 -8 8 -8 22 1 48 10 31 10 39 -3 53 -15 14 -15 13
-10 -9 5 -20 3 -22 -8 -11 -25 23 -33 12 -9 -13 29 -31 20 -44 -15 -21 -15 10
-25 12 -25 5 0 -6 9 -13 19 -16 17 -4 39 -33 25 -33 -8 0 -58 33 -67 45 -5 6
-7 3 -3 -7 3 -12 0 -18 -9 -18 -8 0 -15 9 -15 20 0 11 -4 20 -10 20 -5 0 -10
-7 -10 -15 0 -18 -16 -20 -23 -2 -3 6 -6 0 -6 -15 -1 -30 8 -35 27 -16 9 9 15
9 24 0 7 -7 23 -12 36 -12 13 0 21 -4 18 -9 -9 -14 -117 -4 -130 13 -6 8 -27
19 -46 24 -26 8 -29 10 -12 11 12 1 25 7 28 15 3 8 12 12 20 9 8 -3 14 1 14 9
0 18 -47 45 -57 33 -5 -4 -2 -10 4 -12 17 -6 17 -30 1 -30 -7 0 -26 -3 -43 -7
-27 -6 -30 -4 -30 19 0 22 4 25 22 20 13 -3 23 -1 23 5 0 15 -57 12 -63 -4 -7
-17 -65 -15 -76 3 -7 10 -9 9 -14 -3 -8 -20 -27 -21 -27 -1 0 19 -137 17 -145
-2 -2 -7 -9 -13 -16 -13 -6 0 -9 7 -5 15 4 12 -5 15 -49 15 -44 0 -53 -3 -49
-15 4 -8 1 -15 -5 -15 -6 0 -11 7 -11 15 0 9 -9 15 -25 15 -22 0 -25 -4 -25
-40 0 -48 -20 -55 -21 -7 0 27 -2 29 -9 12 -8 -18 -9 -17 -9 8 -1 30 -15 36
-25 10 -6 -14 -8 -14 -21 3 -12 15 -16 16 -24 5 -5 -9 -11 -10 -15 -3 -9 16
-289 14 -298 -2 -6 -8 -8 -8 -8 2 0 7 -14 12 -34 12 -19 0 -37 -6 -39 -12 -4
-10 -6 -10 -6 -1 -1 10 -420 13 -1961 13 l-1960 0 0 -6610z m4215 6590 c-3 -5
-11 -10 -16 -10 -6 0 -7 5 -4 10 3 6 11 10 16 10 6 0 7 -4 4 -10z m520 -10
c-4 -12 -2 -20 5 -20 7 0 10 -8 7 -19 -2 -11 4 -33 14 -50 23 -38 23 -41 4
-41 -8 0 -15 7 -15 15 0 9 -7 18 -15 21 -10 4 -15 20 -15 45 0 38 -1 39 -34
39 -21 0 -36 -6 -40 -16 -3 -8 -10 -12 -16 -9 -6 4 -8 11 -4 16 7 13 62 34 92
37 19 2 22 -2 17 -18z m2765 5 c7 -9 8 -15 2 -15 -5 0 -12 7 -16 15 -3 8 -4
15 -2 15 2 0 9 -7 16 -15z m310 -7 c0 -13 -23 -5 -28 10 -2 7 2 10 12 6 9 -3
16 -11 16 -16z m-260 -3 c0 -8 -7 -15 -15 -15 -16 0 -20 12 -8 23 11 12 23 8
23 -8z m204 -30 c-13 -9 -24 -10 -36 -4 -24 13 -31 11 -24 -6 6 -17 0 -18 -29
-5 -11 5 -14 9 -7 9 7 1 20 8 28 16 10 9 25 13 39 9 13 -3 26 0 31 7 6 10 9
10 12 0 2 -7 -4 -18 -14 -26z m206 25 c0 -5 -5 -10 -11 -10 -5 0 -7 5 -4 10 3
6 8 10 11 10 2 0 4 -4 4 -10z m190 0 c0 -5 -7 -10 -15 -10 -8 0 -15 5 -15 10
0 6 7 10 15 10 8 0 15 -4 15 -10z m-3344 -15 c-3 -8 -9 -23 -12 -32 -5 -15 -4
-16 5 -3 9 12 11 9 11 -16 0 -17 -3 -34 -7 -37 -9 -9 -35 44 -29 60 3 7 1 13
-4 13 -5 0 -7 7 -4 15 4 8 15 15 26 15 14 0 18 -5 14 -15z m44 5 c0 -5 -4 -10
-10 -10 -5 0 -10 5 -10 10 0 6 5 10 10 10 6 0 10 -4 10 -10z m3190 0 c0 -5 -2
-10 -4 -10 -3 0 -8 5 -11 10 -3 6 -1 10 4 10 6 0 11 -4 11 -10z m-4120 -4 c0
-2 -9 -6 -20 -9 -11 -3 -20 -1 -20 4 0 5 9 9 20 9 11 0 20 -2 20 -4z m320 0
c0 -2 -7 -7 -16 -10 -8 -3 -12 -2 -9 4 6 10 25 14 25 6z m280 -6 c0 -5 -6 -10
-14 -10 -8 0 -18 5 -21 10 -3 6 3 10 14 10 12 0 21 -4 21 -10z m3110 0 c0 -5
-4 -10 -10 -10 -5 0 -10 5 -10 10 0 6 5 10 10 10 6 0 10 -4 10 -10z m-3830 -4
c0 -3 -4 -8 -10 -11 -5 -3 -10 -1 -10 4 0 6 5 11 10 11 6 0 10 -2 10 -4z m805
-6 c3 -5 -3 -10 -14 -10 -12 0 -21 5 -21 10 0 6 6 10 14 10 8 0 18 -4 21 -10z
m2916 -13 c-10 -9 -11 -8 -5 6 3 10 9 15 12 12 3 -3 0 -11 -7 -18z m-3411 3
c-8 -5 -19 -10 -25 -10 -5 0 -3 5 5 10 8 5 20 10 25 10 6 0 3 -5 -5 -10z m442
1 c-10 -6 -8 -10 10 -15 15 -5 18 -9 10 -13 -8 -3 -26 1 -40 8 -20 11 -26 11
-29 2 -5 -15 -23 -17 -23 -3 0 5 15 14 33 19 42 12 55 13 39 2z m326 -3 c7 -7
27 -11 46 -10 31 2 33 0 28 -23 -5 -29 -10 -31 -27 -8 -16 21 -45 10 -45 -17
0 -12 4 -19 10 -15 5 3 7 13 4 23 -5 14 -2 13 11 -3 9 -11 21 -19 26 -17 9 2
39 -21 39 -30 0 -5 -89 -3 -94 3 -3 2 -6 25 -7 49 -2 25 -7 48 -13 52 -8 5 -8
8 0 8 5 0 15 -5 22 -12z m-808 -2 c0 -3 -4 -8 -10 -11 -5 -3 -10 -1 -10 4 0 6
5 11 10 11 6 0 10 -2 10 -4z m2955 -6 c3 -5 2 -10 -4 -10 -5 0 -13 5 -16 10
-3 6 -2 10 4 10 5 0 13 -4 16 -10z m218 -20 c29 0 38 -3 30 -11 -11 -11 -103
7 -103 21 0 15 25 17 28 3 2 -8 18 -13 45 -13z m380 23 c-7 -2 -21 -2 -30 0
-10 3 -4 5 12 5 17 0 24 -2 18 -5z m-2953 -14 c0 -6 -6 -9 -14 -6 -8 3 -17 1
-19 -6 -2 -7 -8 -8 -13 -4 -5 4 -2 12 6 17 20 13 40 12 40 -1z m306 -26 c-11
-11 -19 6 -11 24 8 17 8 17 12 0 3 -10 2 -21 -1 -24z m1984 26 c0 -6 6 -9 14
-6 8 3 22 -1 33 -9 17 -14 16 -15 -15 -10 -30 5 -33 4 -26 -16 5 -18 4 -19 -9
-7 -8 8 -13 17 -11 21 2 4 0 9 -6 13 -15 9 -12 25 5 25 8 0 15 -5 15 -11z
m403 -11 c3 -10 7 -10 19 0 9 7 27 10 47 6 38 -8 36 -30 -2 -26 -36 4 -57 -9
-31 -19 16 -6 15 -8 -8 -8 -14 -1 -29 -7 -32 -13 -3 -7 -3 1 1 17 5 29 5 29
-10 10 -20 -26 -30 -15 -18 19 11 28 27 34 34 14z m-3187 -18 c8 0 14 -5 14
-10 0 -7 -6 -7 -20 0 -11 6 -20 16 -19 23 0 9 2 9 6 0 2 -7 11 -13 19 -13z
m542 2 c2 -7 -6 -12 -17 -12 -21 0 -27 11 -14 24 9 9 26 2 31 -12z m1005 -9
c-18 -6 -16 -23 2 -23 8 0 15 -4 15 -10 0 -9 -14 -12 -37 -9 -5 1 -7 5 -5 10
1 5 -2 9 -8 9 -18 0 -11 38 8 43 21 4 43 -13 25 -20z m1010 13 c22 -17 9 -27
-21 -19 -22 5 -27 14 -15 26 9 10 15 8 36 -7z m-2433 0 c0 -3 -4 -8 -10 -11
-5 -3 -10 -1 -10 4 0 6 5 11 10 11 6 0 10 -2 10 -4z m310 -5 c0 -14 -38 -24
-52 -14 -9 5 -3 10 17 14 17 4 31 7 33 8 1 0 2 -3 2 -8z m60 -11 c0 -15 -6
-20 -27 -19 -25 0 -26 1 -8 9 11 5 16 9 12 9 -11 1 2 21 14 21 5 0 9 -9 9 -20z
m1003 -10 c4 -17 3 -19 -9 -9 -8 6 -14 18 -14 26 0 20 16 8 23 -17z m-673 5
c0 -8 -9 -15 -20 -15 -22 0 -27 15 -7 23 21 9 27 7 27 -8z m200 0 c0 -8 -9
-15 -20 -15 -11 0 -20 -4 -20 -10 0 -5 -9 -10 -20 -10 -11 0 -20 5 -20 10 0 6
9 10 20 10 11 0 23 7 26 15 4 8 12 15 20 15 8 0 14 -7 14 -15z m66 -9 c-3 -12
-6 -27 -6 -33 0 -23 -18 -13 -34 19 -9 17 -16 32 -16 33 0 1 14 2 31 2 26 0
30 -3 25 -21z m1990 7 c-7 -7 20 -33 34 -33 6 0 9 -4 5 -10 -3 -5 -12 -7 -20
-3 -8 3 -15 0 -15 -7 0 -6 -5 -8 -10 -5 -6 4 -9 14 -8 22 5 25 -17 26 -28 1
-6 -13 -9 -17 -7 -10 1 7 -1 22 -6 35 -8 21 -7 22 26 19 19 -2 32 -7 29 -9z
m352 -8 c-3 -3 -9 2 -12 12 -6 14 -5 15 5 6 7 -7 10 -15 7 -18z m-1083 5 c3
-5 1 -10 -4 -10 -6 0 -11 5 -11 10 0 6 2 10 4 10 3 0 8 -4 11 -10z m-2156 -4
c-7 -7 -69 -15 -65 -7 3 4 19 8 37 9 18 1 31 1 28 -2z m361 -21 c0 -15 -2 -17
-9 -6 -5 7 -15 17 -22 22 -10 6 -7 8 9 6 15 -1 22 -8 22 -22z m338 -3 c-5 -25
-23 -24 -23 2 0 15 5 22 13 18 7 -2 12 -11 10 -20z m1732 18 c0 -5 8 -10 17
-10 9 0 14 -3 10 -6 -8 -8 -47 5 -47 17 0 5 5 9 10 9 6 0 10 -4 10 -10z m870
0 c13 -8 13 -10 -2 -10 -9 0 -20 5 -23 10 -8 13 5 13 25 0z m130 5 c0 -7 -39
-12 -49 -5 -7 4 1 7 18 8 17 0 31 -1 31 -3z m-2949 -18 c-1 -12 -15 -9 -19 4
-3 6 1 10 8 8 6 -3 11 -8 11 -12z m256 -7 c-1 -12 -5 -16 -10 -11 -5 5 -6 14
-3 20 11 16 15 13 13 -9z m467 5 c-5 -11 -2 -13 10 -9 9 3 16 1 16 -5 0 -6 -8
-11 -18 -11 -10 0 -23 -5 -29 -11 -6 -6 -13 -7 -16 -2 -8 14 12 53 27 53 10 0
13 -6 10 -15z m430 -15 c-5 -4 -20 -11 -34 -14 -24 -7 -24 -6 3 9 15 9 27 21
28 28 0 8 2 8 6 -1 3 -8 1 -17 -3 -22z m726 18 c0 -6 -3 -8 -6 -5 -4 3 -15 2
-25 -4 -15 -7 -17 -6 -13 6 7 18 44 21 44 3z m165 2 c3 -5 1 -10 -4 -10 -6 0
-11 5 -11 10 0 6 2 10 4 10 3 0 8 -4 11 -10z m552 -22 c-3 -7 -5 -2 -5 12 0
14 2 19 5 13 2 -7 2 -19 0 -25z m-3367 18 c0 -11 -19 -15 -25 -6 -3 5 1 10 9
10 9 0 16 -2 16 -4z m486 -23 c-10 -10 -19 5 -10 18 6 11 8 11 12 0 2 -7 1
-15 -2 -18z m244 -9 c0 -28 15 -32 29 -6 9 15 10 13 11 -10 0 -21 -4 -25 -20
-21 -15 4 -19 2 -14 -10 3 -8 1 -18 -4 -21 -6 -4 -12 16 -14 48 -1 30 0 52 5
49 4 -2 7 -15 7 -29z m1672 23 c3 4 3 2 1 -5 -1 -8 -3 -21 -3 -30 -1 -12 -5
-10 -15 8 -18 32 -19 46 -1 31 8 -7 16 -8 18 -4z m-2165 -29 c-3 -7 -5 -2 -5
12 0 14 2 19 5 13 2 -7 2 -19 0 -25z m884 25 c8 -44 6 -50 -15 -45 -18 5 -18
7 -3 10 9 2 17 8 17 13 0 12 -37 12 -45 -1 -7 -12 -35 -14 -35 -2 0 17 78 41
81 25z m1798 -7 c-2 -2 -15 -7 -29 -10 l-25 -7 25 15 c21 12 42 14 29 2z m71
-7 c0 -11 -4 -17 -10 -14 -5 3 -10 13 -10 21 0 8 5 14 10 14 6 0 10 -9 10 -21z
m55 11 c3 -5 1 -10 -4 -10 -6 0 -11 5 -11 10 0 6 2 10 4 10 3 0 8 -4 11 -10z
m475 0 c0 -5 -5 -10 -11 -10 -5 0 -7 5 -4 10 3 6 8 10 11 10 2 0 4 -4 4 -10z
m-3365 -10 c3 -5 -3 -10 -14 -10 -12 0 -21 5 -21 10 0 6 6 10 14 10 8 0 18 -4
21 -10z m455 0 c0 -5 -4 -10 -10 -10 -5 0 -10 5 -10 10 0 6 5 10 10 10 6 0 10
-4 10 -10z m716 -15 c-5 -18 -2 -25 9 -25 8 0 15 8 15 18 0 14 2 15 10 2 6
-10 10 -11 10 -2 0 6 10 12 22 12 20 0 20 -1 4 -19 -10 -11 -24 -17 -31 -15
-7 3 -16 1 -20 -5 -3 -6 -1 -11 4 -11 6 0 11 -6 11 -14 0 -9 -7 -12 -20 -9
-11 3 -20 12 -20 19 0 8 -5 14 -11 14 -6 0 -8 7 -5 15 3 9 -1 18 -10 22 -13 5
-13 7 -2 14 26 17 40 10 34 -16z m1169 5 c-3 -4 -15 -6 -27 -2 -21 5 -21 6 -2
12 21 8 37 3 29 -10z m350 10 c3 -5 -3 -10 -14 -10 -12 0 -21 5 -21 10 0 6 6
10 14 10 8 0 18 -4 21 -10z m-2842 -14 c7 -17 -1 -26 -22 -25 -12 0 -11 3 4 9
11 5 14 9 8 9 -7 1 -13 6 -13 11 0 15 17 12 23 -4z m394 8 c-3 -3 -12 -4 -19
-1 -8 3 -5 6 6 6 11 1 17 -2 13 -5z m487 -15 c8 -9 7 -10 -2 -4 -8 4 -19 0
-26 -11 -13 -17 -15 -17 -30 -1 -10 9 -22 17 -27 17 -5 0 -9 5 -9 11 0 14 80
3 94 -12z m766 12 c0 -5 -11 -8 -25 -7 -33 1 -33 16 0 16 14 0 25 -4 25 -9z
m354 -8 c4 -10 4 -14 0 -10 -4 4 -13 2 -21 -4 -10 -9 -13 -8 -13 3 0 30 24 38
34 11z m247 -33 c5 0 9 -7 9 -15 0 -8 -4 -15 -9 -15 -10 0 -21 37 -19 65 0 12
3 9 5 -7 2 -16 9 -28 14 -28z m347 25 c17 -20 19 -25 7 -25 -9 0 -18 7 -22 16
-3 8 -12 13 -19 10 -14 -6 -19 6 -7 17 11 11 18 8 41 -18z m42 9 c0 -8 -4 -12
-10 -9 -5 3 -10 10 -10 16 0 5 5 9 10 9 6 0 10 -7 10 -16z m120 6 c0 -13 -11
-13 -30 0 -12 8 -11 10 8 10 12 0 22 -4 22 -10z m-2465 -10 c3 -5 1 -10 -4
-10 -6 0 -11 5 -11 10 0 6 2 10 4 10 3 0 8 -4 11 -10z m668 -3 c3 -8 1 -20 -5
-28 -8 -11 -9 -11 -5 2 3 9 0 22 -6 28 -8 8 -8 11 0 11 6 0 13 -6 16 -13z m49
1 c-9 -9 -15 -9 -24 0 -9 9 -7 12 12 12 19 0 21 -3 12 -12z m1800 -40 c-8 -10
-25 -17 -36 -17 -20 2 -20 2 2 6 21 4 32 33 12 33 -5 0 -7 6 -4 14 5 12 8 12
23 -2 16 -15 16 -19 3 -34z m148 36 c0 -14 -3 -14 -15 -4 -8 7 -15 14 -15 16
0 2 7 4 15 4 8 0 15 -7 15 -16z m90 -36 c0 -5 -9 1 -20 12 -11 11 -20 26 -20
33 0 12 39 -32 40 -45z m-1100 32 c0 -13 -38 -32 -53 -26 -7 2 -3 5 8 5 17 1
18 3 5 12 -13 9 -12 10 3 5 9 -3 17 -1 17 4 0 6 5 10 10 10 6 0 10 -4 10 -10z
m580 -5 c0 -8 -4 -15 -9 -15 -13 0 -22 16 -14 24 11 11 23 6 23 -9z m1210 5
c0 -5 -2 -10 -4 -10 -3 0 -8 5 -11 10 -3 6 -1 10 4 10 6 0 11 -4 11 -10z
m-3673 -6 c-3 -3 -12 -4 -19 -1 -8 3 -5 6 6 6 11 1 17 -2 13 -5z m50 0 c-3 -3
-12 -4 -19 -1 -8 3 -5 6 6 6 11 1 17 -2 13 -5z m1167 -9 c-4 -8 -11 -12 -16
-9 -6 4 -5 10 3 15 19 12 19 11 13 -6z m316 7 c0 -5 -15 -9 -32 -9 -27 -1 -29
1 -13 7 27 11 45 12 45 2z m53 2 c11 -12 -13 -44 -33 -44 -10 0 -21 -4 -24 -9
-3 -4 -17 -6 -31 -3 -18 3 -25 0 -25 -12 0 -9 -5 -16 -11 -16 -7 0 -9 10 -7
25 3 13 0 26 -6 29 -6 2 9 2 33 0 35 -4 47 -1 63 15 20 22 30 25 41 15z m421
-2 c6 -10 -30 -9 -40 1 -4 4 2 7 14 7 11 0 23 -4 26 -8z m356 -7 c0 -8 -4 -15
-10 -15 -5 0 -10 7 -10 15 0 8 5 15 10 15 6 0 10 -7 10 -15z m40 5 c0 -5 -4
-10 -10 -10 -5 0 -10 5 -10 10 0 6 5 10 10 10 6 0 10 -4 10 -10z m403 3 c-7
-2 -19 -2 -25 0 -7 3 -2 5 12 5 14 0 19 -2 13 -5z m213 -7 c15 -16 18 -26 6
-26 -4 0 -13 9 -20 20 -14 23 -7 26 14 6z m-2265 -30 c-4 -6 -11 -18 -13 -26
-3 -8 -5 2 -5 22 1 30 4 35 14 26 8 -6 10 -15 4 -22z m206 28 c-3 -3 -12 -4
-19 -1 -8 3 -5 6 6 6 11 1 17 -2 13 -5z m76 -1 c-7 -2 -21 -2 -30 0 -10 3 -4
5 12 5 17 0 24 -2 18 -5z m927 -29 c0 -3 -7 -1 -15 6 -8 7 -15 17 -15 22 0 5
7 3 15 -6 8 -8 15 -18 15 -22z m350 -31 c0 -12 7 -14 29 -10 32 7 62 -15 40
-29 -8 -5 -9 -3 -4 5 5 9 -2 12 -25 9 -32 -3 -42 5 -54 45 -3 10 -15 17 -31
17 -15 0 -24 4 -20 10 3 5 12 7 20 3 9 -3 15 1 15 8 0 8 7 1 15 -15 8 -15 15
-35 15 -43z m537 61 c-3 -3 -12 -4 -19 -1 -8 3 -5 6 6 6 11 1 17 -2 13 -5z
m-2017 -35 c0 -16 -4 -28 -9 -25 -8 5 -3 56 5 56 2 0 4 -14 4 -31z m540 21 c0
-5 -2 -10 -4 -10 -3 0 -8 5 -11 10 -3 6 -1 10 4 10 6 0 11 -4 11 -10z m406 -5
c14 -13 13 -15 -10 -15 -25 0 -33 10 -19 23 9 10 13 9 29 -8z m366 -6 c-13 -5
-28 -7 -32 -4 -5 3 -10 0 -12 -7 -3 -7 -7 -4 -10 7 -4 18 -1 20 36 16 36 -3
38 -5 18 -12z m368 17 c0 -3 -4 -8 -10 -11 -5 -3 -10 -1 -10 4 0 6 5 11 10 11
6 0 10 -2 10 -4z m-1715 -16 c3 -5 1 -10 -4 -10 -6 0 -11 5 -11 10 0 6 2 10 4
10 3 0 8 -4 11 -10z m345 2 c0 -5 -11 -19 -25 -32 l-25 -23 0 26 c0 23 9 31
43 36 4 0 7 -3 7 -7z m-90 -12 c0 -5 -7 -10 -16 -10 -8 0 -12 5 -9 10 3 6 10
10 16 10 5 0 9 -4 9 -10z m817 -16 c-2 -2 -12 -1 -22 3 -18 6 -18 7 1 13 17 7
33 -5 21 -16z m133 17 c0 -6 -4 -13 -10 -16 -5 -3 -10 1 -10 9 0 9 5 16 10 16
6 0 10 -4 10 -9z m420 5 c0 -3 -4 -8 -10 -11 -5 -3 -10 -1 -10 4 0 6 5 11 10
11 6 0 10 -2 10 -4z m220 -11 c0 -8 -4 -15 -10 -15 -5 0 -10 7 -10 15 0 8 5
15 10 15 6 0 10 -7 10 -15z m835 5 c3 -5 1 -10 -4 -10 -6 0 -11 5 -11 10 0 6
2 10 4 10 3 0 8 -4 11 -10z m-2070 -10 c3 -5 -3 -10 -15 -10 -12 0 -18 5 -15
10 3 6 10 10 15 10 5 0 12 -4 15 -10z m1265 6 c0 -3 -4 -8 -10 -11 -5 -3 -10
-1 -10 4 0 6 5 11 10 11 6 0 10 -2 10 -4z m-1703 -38 c-3 -7 -5 -2 -5 12 0 14
2 19 5 13 2 -7 2 -19 0 -25z m174 -11 l-23 -22 11 23 c7 12 9 22 6 22 -4 0 -3
5 1 11 4 8 9 8 17 0 8 -8 5 -17 -12 -34z m546 11 c-3 -7 -5 -2 -5 12 0 14 2
19 5 13 2 -7 2 -19 0 -25z m533 22 c0 -5 -7 -10 -15 -10 -8 0 -15 5 -15 10 0
6 7 10 15 10 8 0 15 -4 15 -10z m274 2 c3 -5 -8 -6 -25 -4 -16 2 -29 6 -29 8
0 8 49 4 54 -4z m-1423 -19 c8 -10 9 -14 2 -10 -7 4 -16 0 -22 -10 -9 -15 -10
-14 -7 7 3 14 5 26 5 28 2 6 10 1 22 -15z m852 -13 c-3 -11 -9 -20 -14 -20
-10 0 -12 33 -3 43 12 12 22 -3 17 -23z m323 3 c-10 -10 -19 5 -10 18 6 11 8
11 12 0 2 -7 1 -15 -2 -18z m534 17 c0 -5 -4 -10 -10 -10 -5 0 -10 5 -10 10 0
6 5 10 10 10 6 0 10 -4 10 -10z m-1520 -4 c0 -9 -30 -14 -35 -6 -4 6 3 10 14
10 12 0 21 -2 21 -4z m270 -6 c0 -5 -7 -7 -15 -4 -8 4 -15 8 -15 10 0 2 7 4
15 4 8 0 15 -4 15 -10z m57 4 c-3 -3 -12 -4 -19 -1 -8 3 -5 6 6 6 11 1 17 -2
13 -5z m381 -6 c-4 -17 -20 -28 -31 -21 -4 3 0 11 10 19 22 17 24 17 21 2z
m42 2 c0 -5 -5 -10 -11 -10 -5 0 -7 5 -4 10 3 6 8 10 11 10 2 0 4 -4 4 -10z
m145 0 c8 -13 -15 -13 -35 0 -12 8 -11 10 7 10 12 0 25 -4 28 -10z m270 0 c3
-5 1 -10 -4 -10 -6 0 -11 5 -11 10 0 6 2 10 4 10 3 0 8 -4 11 -10z m-1418 -6
c-3 -3 -12 -4 -19 -1 -8 3 -5 6 6 6 11 1 17 -2 13 -5z m783 -4 c0 -5 -4 -10
-10 -10 -5 0 -10 5 -10 10 0 6 5 10 10 10 6 0 10 -4 10 -10z m263 3 c-13 -2
-23 -11 -23 -19 0 -8 -4 -14 -10 -14 -11 0 -14 23 -3 33 3 4 18 6 32 6 24 -2
24 -2 4 -6z m557 -3 c0 -5 -4 -10 -10 -10 -5 0 -10 5 -10 10 0 6 5 10 10 10 6
0 10 -4 10 -10z m-1220 -10 c0 -5 -4 -10 -10 -10 -5 0 -10 5 -10 10 0 6 5 10
10 10 6 0 10 -4 10 -10z m706 -17 c-10 -10 -19 5 -10 18 6 11 8 11 12 0 2 -7
1 -15 -2 -18z m-1846 -4 c0 -6 -4 -7 -10 -4 -5 3 -10 11 -10 16 0 6 5 7 10 4
6 -3 10 -11 10 -16z m835 11 c-3 -5 -11 -10 -16 -10 -6 0 -7 5 -4 10 3 6 11
10 16 10 6 0 7 -4 4 -10z m531 -4 c3 -8 1 -23 -6 -33 -10 -16 -10 -15 -5 5 5
16 2 22 -9 22 -9 0 -16 5 -16 10 0 15 30 12 36 -4z m384 4 c0 -5 -4 -10 -10
-10 -5 0 -10 5 -10 10 0 6 5 10 10 10 6 0 10 -4 10 -10z m147 -6 c-3 -3 -12
-4 -19 -1 -8 3 -5 6 6 6 11 1 17 -2 13 -5z m756 -14 c3 -11 1 -20 -4 -20 -5 0
-9 9 -9 20 0 11 2 20 4 20 2 0 6 -9 9 -20z m-1368 0 c-3 -5 -12 -10 -18 -10
-7 0 -6 4 3 10 19 12 23 12 15 0z m402 -4 c-3 -7 0 -19 6 -25 8 -8 8 -11 0
-11 -7 0 -14 4 -17 9 -6 10 3 41 11 41 3 0 3 -6 0 -14z m363 -1 c0 -8 -4 -15
-10 -15 -5 0 -10 7 -10 15 0 8 5 15 10 15 6 0 10 -7 10 -15z m100 11 c0 -11
-19 -15 -25 -6 -3 5 1 10 9 10 9 0 16 -2 16 -4z m-2040 -22 c0 -8 -4 -12 -10
-9 -5 3 -10 10 -10 16 0 5 5 9 10 9 6 0 10 -7 10 -16z m696 1 c10 -8 14 -15 8
-15 -5 0 -19 7 -30 15 -10 8 -14 15 -8 15 5 0 19 -7 30 -15z m69 -3 c-3 -3
-11 0 -18 7 -9 10 -8 11 6 5 10 -3 15 -9 12 -12z m195 8 c0 -5 -2 -10 -4 -10
-3 0 -8 5 -11 10 -3 6 -1 10 4 10 6 0 11 -4 11 -10z m537 -12 c-3 -8 -6 -5 -6
6 -1 11 2 17 5 13 3 -3 4 -12 1 -19z m313 12 c0 -5 -4 -10 -10 -10 -5 0 -10 5
-10 10 0 6 5 10 10 10 6 0 10 -4 10 -10z m830 -5 c0 -8 -4 -15 -10 -15 -5 0
-10 7 -10 15 0 8 5 15 10 15 6 0 10 -7 10 -15z m-2373 -27 c-3 -7 -5 -2 -5 12
0 14 2 19 5 13 2 -7 2 -19 0 -25z m953 22 c0 -5 -5 -10 -11 -10 -5 0 -7 5 -4
10 3 6 8 10 11 10 2 0 4 -4 4 -10z m219 -11 c-22 -13 -31 -11 -17 5 7 8 17 12
22 9 4 -3 2 -9 -5 -14z m235 1 c-12 -13 -16 -13 -23 -1 -5 8 -16 11 -25 8 -9
-4 -16 -2 -16 3 0 5 18 9 40 7 35 -2 37 -4 24 -17z m924 8 c-3 -7 -13 -15 -23
-16 -15 -4 -16 -2 -4 12 17 19 32 21 27 4z m-2638 -8 c0 -5 -8 -10 -17 -10
-15 0 -16 2 -3 10 19 12 20 12 20 0z m75 0 c-3 -5 -12 -10 -18 -10 -7 0 -6 4
3 10 19 12 23 12 15 0z m725 -10 c0 -5 -4 -10 -10 -10 -5 0 -10 5 -10 10 0 6
5 10 10 10 6 0 10 -4 10 -10z m1140 -5 c0 -8 -4 -15 -10 -15 -5 0 -7 7 -4 15
4 8 8 15 10 15 2 0 4 -7 4 -15z m787 9 c-3 -3 -12 -4 -19 -1 -8 3 -5 6 6 6 11
1 17 -2 13 -5z m-2247 -14 c0 -5 -4 -10 -10 -10 -5 0 -10 5 -10 10 0 6 5 10
10 10 6 0 10 -4 10 -10z m377 -6 c-3 -3 -12 -4 -19 -1 -8 3 -5 6 6 6 11 1 17
-2 13 -5z m1578 -4 c-3 -5 -11 -10 -16 -10 -6 0 -7 5 -4 10 3 6 11 10 16 10 6
0 7 -4 4 -10z m90 0 c3 -5 -1 -10 -9 -10 -9 0 -16 5 -16 10 0 6 4 10 9 10 6 0
13 -4 16 -10z m-438 -32 c-3 -8 -6 -5 -6 6 -1 11 2 17 5 13 3 -3 4 -12 1 -19z
m-1517 2 c0 -5 -7 -10 -16 -10 -8 0 -12 5 -9 10 3 6 10 10 16 10 5 0 9 -4 9
-10z m2053 -7 c-7 -2 -19 -2 -25 0 -7 3 -2 5 12 5 14 0 19 -2 13 -5z m-1817
-30 c-10 -10 -19 5 -10 18 6 11 8 11 12 0 2 -7 1 -15 -2 -18z m271 21 c-3 -3
-12 -4 -19 -1 -8 3 -5 6 6 6 11 1 17 -2 13 -5z m472 -10 c10 -9 -35 -3 -49 6
-11 8 -7 9 15 4 17 -4 32 -8 34 -10z m98 -20 c-1 -1 -14 0 -29 3 -21 4 -24 8
-15 17 8 10 15 9 29 -3 9 -8 16 -16 15 -17z m-1370 -6 c-3 -7 -5 -2 -5 12 0
14 2 19 5 13 2 -7 2 -19 0 -25z m583 21 c0 -6 7 -9 14 -6 10 4 13 1 9 -9 -7
-19 -16 -18 -31 6 -7 12 -8 20 -2 20 5 0 10 -5 10 -11z m-88 -11 c-9 -9 -15
-9 -24 0 -9 9 -7 12 12 12 19 0 21 -3 12 -12z m368 -8 c0 -5 -2 -10 -4 -10 -3
0 -8 5 -11 10 -3 6 -1 10 4 10 6 0 11 -4 11 -10z m680 0 c0 -5 -5 -10 -11 -10
-5 0 -7 5 -4 10 3 6 8 10 11 10 2 0 4 -4 4 -10z m-320 -10 c13 -8 13 -10 -2
-10 -9 0 -20 5 -23 10 -8 13 5 13 25 0z m50 -4 c0 -3 -4 -8 -10 -11 -5 -3 -10
-1 -10 4 0 6 5 11 10 11 6 0 10 -2 10 -4z m40 -6 c0 -5 -2 -10 -4 -10 -3 0 -8
5 -11 10 -3 6 -1 10 4 10 6 0 11 -4 11 -10z m170 -10 c0 -5 -7 -10 -16 -10 -8
0 -12 5 -9 10 3 6 10 10 16 10 5 0 9 -4 9 -10z m-100 -14 c0 -2 -7 -6 -15 -10
-8 -3 -15 -1 -15 4 0 6 7 10 15 10 8 0 15 -2 15 -4z m127 -28 c-3 -8 -6 -5 -6
6 -1 11 2 17 5 13 3 -3 4 -12 1 -19z"/>
<path d="M5050 13210 c0 -5 5 -10 10 -10 6 0 10 5 10 10 0 6 -4 10 -10 10 -5
0 -10 -4 -10 -10z"/>
<path d="M5090 13209 c0 -5 5 -7 10 -4 6 3 10 8 10 11 0 2 -4 4 -10 4 -5 0
-10 -5 -10 -11z"/>
<path d="M5125 13209 c-11 -16 -1 -19 13 -3 7 8 8 14 3 14 -5 0 -13 -5 -16
-11z"/>
<path d="M5280 13211 c0 -24 21 -61 35 -61 13 0 13 3 3 22 -18 30 -38 52 -38
39z"/>
<path d="M5355 13210 c3 -5 11 -10 16 -10 6 0 7 5 4 10 -3 6 -11 10 -16 10 -6
0 -7 -4 -4 -10z"/>
<path d="M5783 13213 c9 -2 23 -2 30 0 6 3 -1 5 -18 5 -16 0 -22 -2 -12 -5z"/>
<path d="M6000 13205 c7 -8 17 -15 22 -15 5 0 3 7 -6 15 -8 8 -18 15 -22 15
-3 0 -1 -7 6 -15z"/>
<path d="M6083 13209 c9 -5 21 -8 26 -4 5 3 12 1 16 -5 10 -16 25 -12 19 5 -4
10 -19 15 -43 15 -29 -1 -33 -2 -18 -11z"/>
<path d="M6218 13213 c6 -2 18 -2 25 0 6 3 1 5 -13 5 -14 0 -19 -2 -12 -5z"/>
<path d="M6262 13200 c-7 -11 -9 -20 -4 -20 4 0 13 9 20 20 7 11 9 20 4 20 -4
0 -13 -9 -20 -20z"/>
<path d="M6388 13213 c7 -3 16 -2 19 1 4 3 -2 6 -13 5 -11 0 -14 -3 -6 -6z"/>
<path d="M6495 13210 c-7 -11 19 -20 34 -10 9 5 7 9 -8 13 -12 3 -23 2 -26 -3z"/>
<path d="M6688 13213 c7 -3 16 -2 19 1 4 3 -2 6 -13 5 -11 0 -14 -3 -6 -6z"/>
<path d="M6725 13210 c3 -5 10 -10 16 -10 5 0 9 5 9 10 0 6 -7 10 -16 10 -8 0
-12 -4 -9 -10z"/>
<path d="M6957 13199 c5 -20 18 -25 27 -11 2 4 -4 13 -14 19 -15 10 -17 9 -13
-8z"/>
<path d="M7130 13199 c7 -11 14 -18 17 -15 8 8 -5 36 -17 36 -7 0 -7 -6 0 -21z"/>
<path d="M7210 13210 c0 -5 5 -10 11 -10 5 0 7 5 4 10 -3 6 -8 10 -11 10 -2 0
-4 -4 -4 -10z"/>
<path d="M5730 13175 c0 -19 4 -35 8 -35 4 0 8 16 8 35 0 19 -4 35 -8 35 -4 0
-8 -16 -8 -35z"/>
<path d="M6340 13200 c20 -13 33 -13 25 0 -3 6 -14 10 -23 10 -15 0 -15 -2 -2
-10z"/>
<path d="M5620 13190 c0 -5 5 -10 10 -10 6 0 10 5 10 10 0 6 -4 10 -10 10 -5
0 -10 -4 -10 -10z"/>
<path d="M6290 13191 c0 -6 5 -13 10 -16 6 -3 10 1 10 9 0 9 -4 16 -10 16 -5
0 -10 -4 -10 -9z"/>
<path d="M6690 13190 c0 -5 5 -10 11 -10 5 0 7 5 4 10 -3 6 -8 10 -11 10 -2 0
-4 -4 -4 -10z"/>
<path d="M5920 13180 c0 -5 5 -10 11 -10 5 0 7 5 4 10 -3 6 -8 10 -11 10 -2 0
-4 -4 -4 -10z"/>
<path d="M6160 13165 c0 -14 4 -25 9 -25 4 0 6 11 3 25 -2 14 -6 25 -8 25 -2
0 -4 -11 -4 -25z"/>
<path d="M5400 13170 c0 -5 9 -10 20 -10 11 0 20 5 20 10 0 6 -9 10 -20 10
-11 0 -20 -4 -20 -10z"/>
<path d="M6070 13169 c0 -6 -10 -8 -22 -5 -13 3 -17 3 -10 0 21 -10 13 -24
-12 -24 -14 0 -27 -4 -30 -9 -4 -5 10 -5 31 0 21 4 39 12 41 18 2 6 15 6 35 0
43 -12 47 -12 47 7 0 9 -6 14 -12 11 -7 -2 -25 0 -40 4 -17 5 -28 4 -28 -2z"/>
<path d="M6271 13154 c0 -11 3 -14 6 -6 3 7 2 16 -1 19 -3 4 -6 -2 -5 -13z"/>
<path d="M5517 13146 c-3 -8 -16 -16 -29 -18 -14 -2 -19 -6 -12 -10 13 -9 63
27 53 37 -4 3 -9 -1 -12 -9z"/>
<path d="M6350 13149 c0 -5 5 -7 10 -4 6 3 10 8 10 11 0 2 -4 4 -10 4 -5 0
-10 -5 -10 -11z"/>
<path d="M6855 13150 c3 -5 8 -10 11 -10 2 0 4 5 4 10 0 6 -5 10 -11 10 -5 0
-7 -4 -4 -10z"/>
<path d="M5622 13143 c-21 -8 -4 -21 24 -15 19 3 22 7 12 13 -14 10 -17 10
-36 2z"/>
<path d="M6473 13133 c-3 -10 -8 -22 -11 -27 -3 -5 0 -6 6 -2 7 4 12 14 12 22
0 8 7 14 15 14 8 0 15 -7 15 -15 0 -8 5 -15 11 -15 6 0 9 8 7 18 -5 24 -46 28
-55 5z"/>
<path d="M6548 13123 c3 -16 7 -23 9 -16 2 7 10 10 18 7 7 -3 16 -1 20 5 3 7
-2 11 -14 11 -12 0 -21 5 -21 10 0 6 -4 10 -9 10 -4 0 -6 -12 -3 -27z"/>
<path d="M5290 13130 c0 -5 6 -10 14 -10 8 0 18 5 21 10 3 6 -3 10 -14 10 -12
0 -21 -4 -21 -10z"/>
<path d="M5928 13133 c7 -3 16 -2 19 1 4 3 -2 6 -13 5 -11 0 -14 -3 -6 -6z"/>
<path d="M6090 13133 c0 -5 5 -15 10 -23 8 -12 10 -11 10 8 0 12 -4 22 -10 22
-5 0 -10 -3 -10 -7z"/>
<path d="M5405 13120 c-3 -5 1 -10 9 -10 9 0 16 5 16 10 0 6 -4 10 -9 10 -6 0
-13 -4 -16 -10z"/>
<path d="M5813 13106 c4 -9 -3 -16 -16 -20 -12 -3 -18 -8 -14 -12 8 -8 57 15
57 27 0 4 -7 10 -16 13 -11 4 -15 2 -11 -8z"/>
<path d="M5900 13100 c-21 -7 -21 -8 -5 -9 11 0 27 4 35 9 18 11 5 11 -30 0z"/>
<path d="M5431 13074 c0 -11 3 -14 6 -6 3 7 2 16 -1 19 -3 4 -6 -2 -5 -13z"/>
<path d="M5820 13020 c0 -5 5 -10 10 -10 6 0 10 5 10 10 0 6 -4 10 -10 10 -5
0 -10 -4 -10 -10z"/>
</g>
</svg>
